<svg width="104" height="93" viewBox="0 0 104 93" fill="none" xmlns="http://www.w3.org/2000/svg">
<path fill-rule="evenodd" clip-rule="evenodd" d="M87.7188 0.493654C84.6414 1.4774 83.048 3.11837 71.7975 16.8894L60.7983 30.3531L57.3164 30.5075C52.4611 30.7226 48.2136 32.286 44.1861 35.3404C42.2936 36.7756 40.918 37.67 41.1293 37.3283C45.4254 30.3767 5.75383 37.6923 1.16358 44.6982C-3.55352 51.897 6.85731 75.2295 18.2635 83.0224C20.0255 84.2262 21.6374 85.8723 21.8458 86.68C23.854 94.4729 69.1232 94.4396 69.2174 86.6454C69.2294 85.6688 70.0746 84.6977 71.8674 83.6013C81.6287 77.6315 90.2303 61.9936 90.572 49.5962C90.7176 44.3148 87.183 40.6232 80.6392 39.222C78.9946 38.8699 79.6121 38.247 89.8821 29.8968C103.503 18.8223 105.189 16.3057 103.421 9.69422C101.602 2.89411 94.0507 -1.53078 87.7188 0.493654ZM94.1863 5.29683C98.3018 7.43809 100.327 11.762 98.9244 15.4125C98.5381 16.4189 92.6256 21.701 84.222 28.5481C67.0011 42.5796 68.2553 40.7167 69.1575 50.9194C69.1808 51.1851 69.9319 51.4022 70.826 51.4022C72.7233 51.4022 73.708 49.4461 73.708 45.6768C73.708 43.9811 74.1423 42.8641 75.1571 41.9506C77.4485 39.8879 78.1368 39.652 77.7695 41.0561C77.508 42.0564 78.1963 42.6835 81.2491 44.2245C86.605 46.9282 86.805 47.2657 85.9507 52.1572C83.7674 64.6578 78.1025 73.806 68.4408 80.4342C66.1222 82.0251 64.7081 83.4761 64.577 84.3993C63.8625 89.4309 26.0535 89.0801 26.0535 84.0417C26.0535 82.9635 24.9785 81.8798 21.904 79.8582C12.4947 73.672 4.85455 60.0287 4.81184 49.3367C4.79307 44.6432 16.5128 40.5413 33.4808 39.3022L39.9421 38.8304L37.8209 42.3531C35.4055 46.3641 34.4341 49.3704 34.4289 52.8513C34.4247 55.7453 33.5613 55.8721 24.5569 54.302C16.8983 52.9665 11.9595 51.0356 11.2191 49.0875C9.95253 45.7564 6.11724 47.5676 6.99872 51.0806C10.2875 64.1844 84.0117 62.8437 84.0117 49.68C84.0117 46.9754 81.5407 46.6217 79.9204 49.0943C77.5514 52.7102 65.8552 55.2071 48.9148 55.7142C39.3402 56.0006 37.4633 55.9132 38.1283 55.2126C38.571 54.7463 38.9331 53.4338 38.9331 52.2957C38.9331 43.7261 51.1153 33.6357 59.8751 34.9492L62.6616 35.3669L74.3351 21.0063C88.2916 3.8374 89.5174 2.86758 94.1863 5.29683ZM13.6034 62.7793C11.7932 64.5895 16.7413 72.0042 22.7936 76.5504C27.1641 79.8336 28.4692 80.2841 29.7888 78.9644C31.1648 77.5885 30.6256 76.6054 27.0424 73.9584C22.9343 70.9237 20.8889 68.8601 18.2477 65.0869C16.4947 62.5826 14.6945 61.6882 13.6034 62.7793Z" fill="white"/>
</svg>
