<svg width="95" height="95" viewBox="0 0 95 95" fill="none" xmlns="http://www.w3.org/2000/svg">
<path fill-rule="evenodd" clip-rule="evenodd" d="M37.214 1.1086C-12.9495 12.8553 -12.1854 83.8318 38.214 94.0444C75.9213 101.685 106.517 62.0547 89.8794 27.1227C80.5588 7.55307 57.768 -3.70419 37.214 1.1086ZM46.5518 7.48162C46.4533 11.0128 45.5312 15.0302 45.3968 12.5137C45.2317 9.42357 44.5538 9.06011 39.8904 9.55962C34.7807 10.1068 35.1415 9.62455 33.4094 18.2136L32.0195 25.1067L21.9681 27.6173C9.93791 30.6216 11.5852 28.9883 10.1927 39.2945C8.73202 50.107 8.69418 52.019 9.99991 49.0326L10.9242 46.9187L13.075 48.3285C14.8972 49.523 15.724 51.0327 18.4937 58.2249L21.7616 66.7119L18.125 70.7785C13.705 75.7211 14.1768 75.7208 11.0991 70.7876C-6.05547 43.2923 12.6091 5.31911 43.5443 4.77652L46.6285 4.72236L46.5518 7.48162ZM61.3687 6.97231C65.7364 8.55798 70.9293 11.497 74.4462 14.3744L76.6169 16.1503L70.3042 15.8742L63.9916 15.5979L64.3211 19.7373L64.6506 23.8763L61.5129 27.1227C58.5406 30.1981 58.3513 30.6089 57.9164 34.9143C57.4955 39.0801 57.195 39.7839 54.3154 43.3458C49.516 49.2826 50.04 50.3419 58.1321 51.0604C62.7716 51.4721 62.8323 51.4571 64.2399 49.5537L65.6611 47.631L67.5574 49.2264C69.0761 50.5044 70.1757 50.8219 73.083 50.8219C78.4724 50.8219 77.1147 51.3384 64.4102 54.1205C58.0698 55.5091 52.6893 56.869 52.4534 57.1424C51.3382 58.4347 46.526 70.9122 46.7316 71.9788C46.8951 72.8284 49.4742 74.2976 55.3996 76.9159L63.8349 80.6435L64.0271 83.795C64.249 87.4338 63.7446 87.8276 56.7585 89.4753C44.5779 92.3481 29.2338 88.7304 20.0787 80.8272L17.2277 78.3665L21.864 73.3661C27.4243 67.3696 27.3535 68.7687 22.7038 56.7058C19.3074 47.8936 18.6545 46.6845 16.5083 45.2257L14.1089 43.5957L14.5465 39.5796C15.1925 33.6517 14.9683 33.8229 25.3107 31.3674C36.4623 28.7198 35.8763 29.1854 37.1902 21.9285C38.5648 14.3372 38.7403 13.8122 39.9044 13.8122C40.601 13.8122 40.8509 14.423 40.769 15.9225C40.7054 17.0831 40.6829 18.3979 40.7191 18.8443C40.8115 19.9823 43.7032 19.8547 46.174 18.6038C49.8263 16.7542 50.5238 15.7894 50.5313 12.5753C50.5352 10.9345 50.7242 8.46956 50.9506 7.0976L51.363 4.60327L54.3265 5.04765C55.9565 5.29203 59.1252 6.15827 61.3687 6.97231ZM79.6561 20.7343C81.8443 21.32 85.9227 27.9557 87.9407 34.2141C93.5512 51.6121 87.5638 70.786 73.1258 81.6586L69.0292 84.7434L68.7045 81.2628L68.3799 77.7825L60.5882 74.3227C50.948 70.0421 51.4902 70.7005 53.4978 65.718C55.72 60.2031 54.6704 60.7773 67.7998 57.8951C80.9001 55.0193 80.1256 55.421 80.5608 51.279C80.9993 47.108 80.1014 46.277 75.1565 46.277C71.7646 46.277 70.9636 46.0101 68.3388 44.0068C64.9603 41.428 63.6163 41.6338 61.877 44.9977C61.1788 46.3478 60.398 46.9262 59.2731 46.9262C57.2479 46.9262 57.2319 47.0062 59.9328 43.6087C61.9413 41.0818 62.1997 40.3219 62.2052 36.9209C62.2114 33.1499 62.2744 33.018 65.8604 29.2584C69.3332 25.6176 69.4895 25.3096 69.099 22.8691L68.6892 20.3053L73.4041 20.3141C75.9976 20.319 78.8107 20.5082 79.6561 20.7343Z" fill="white"/>
</svg>
