<svg width="45" height="51" viewBox="0 0 45 51" fill="none" xmlns="http://www.w3.org/2000/svg">
<path d="M15.1875 28.0626L20.4938 22.1093L8.8875 9.10866C7.9875 8.09891 6.43125 8.37238 5.86875 9.67665C4.5375 12.8111 5.025 16.6608 7.33125 19.2693L15.1875 28.0626ZM27.9 24.255C30.7688 25.7486 34.8 24.6968 37.7812 21.352C41.3625 17.334 42.0562 11.5699 39.3 8.47757C36.5625 5.40623 31.425 6.16354 27.825 10.1815C24.8438 13.5263 23.9063 18.0492 25.2375 21.2678L8.26875 40.3059C7.5375 41.1263 7.5375 42.4516 8.26875 43.2721C9 44.0925 10.1813 44.0925 10.9125 43.2721L22.5 30.3135L34.0875 43.3141C34.8188 44.1346 36 44.1346 36.7313 43.3141C37.4625 42.4937 37.4625 41.1684 36.7313 40.348L25.1438 27.3474L27.9 24.255Z" fill="white"/>
</svg>
