<svg width="112" height="112" viewBox="0 0 112 112" fill="none" xmlns="http://www.w3.org/2000/svg">
<path fill-rule="evenodd" clip-rule="evenodd" d="M35.7362 10.0883C31.6736 12.2745 29.9788 18.548 32.1976 23.1877L33.2934 25.4792L30.1049 27.2367C26.0749 29.4575 23.7379 32.3519 22.6594 36.4573C15.9564 61.9767 15.5985 65.4006 19.5381 66.3454C22.0723 66.9531 23.6899 65.4569 25.1164 61.186C26.8767 55.9145 26.9155 56.8977 25.3192 66.3323C23.4791 77.2083 23.5435 77.799 26.5965 78.0402L28.955 78.2265V89.2956C28.955 101.683 29.3627 103 33.1955 103C36.8099 103 38.3463 96.3179 38.3848 80.4291C38.3889 78.6202 38.6006 78.1568 39.4219 78.1568C40.357 78.1568 40.4878 78.9073 40.8203 86.1853C41.5167 101.431 41.9852 103 45.8425 103C49.5807 103 50.045 101.451 50.045 88.9817V78.1568H52.2825C55.6459 78.1568 55.6443 78.3297 52.4917 58.7669C52.3576 57.9338 52.8426 58.871 53.5696 60.8498C54.2969 62.8286 55.5204 65.0099 56.2885 65.6974C57.0568 66.3847 57.8522 67.5469 58.0564 68.2801C58.3076 69.1835 60.2961 70.7074 64.2262 73.0089C67.4155 74.8766 70.0298 76.5945 70.0354 76.8265C70.041 77.0582 69.3747 80.2723 68.5548 83.969C66.8854 91.4967 67.0033 92.6991 69.4126 92.6991C71.0037 92.6991 71.0656 92.8084 71.3877 96.1833C71.924 101.804 72.3078 102.697 74.1875 102.697C76.0675 102.697 76.4512 101.804 76.9875 96.1833C77.2117 93.833 77.5648 92.6991 78.0727 92.6991C78.5802 92.6991 78.9333 93.833 79.1578 96.1833C79.6941 101.804 80.0779 102.697 81.9576 102.697C83.8375 102.697 84.2213 101.804 84.7576 96.1833C85.0794 92.8084 85.1413 92.6991 86.7324 92.6991C88.9479 92.6991 89.2463 91.5125 88.2147 86.8053L87.3574 82.8939L89.3983 85.0697C92.2214 88.0795 95 87.8091 95 84.5247C95 83.1177 89.2153 72.7931 86.9753 70.2019C85.9758 69.0455 85.7421 68.414 86.1997 68.105C86.5754 67.8516 87.2687 68.221 87.8251 68.9712C88.3589 69.691 89.3174 70.2796 89.9552 70.2796C91.5764 70.2796 91.4668 68.1841 89.7276 65.9276C88.6818 64.5709 88.3396 63.43 88.3379 61.2956C88.331 51.5178 76.2669 48.4176 71.9773 57.091C71.1869 58.6886 70.2005 59.5981 68.4775 60.3164C64.471 61.9867 65.7475 64.8641 69.8416 63.391C70.7756 63.0549 71.1292 63.2455 71.4184 64.2405C71.9731 66.1481 71.6147 66.2376 66.5646 65.4551L61.9326 64.7371L62.1418 62.779C62.2659 61.6208 60.9646 55.2669 58.9555 47.221C55.1442 31.9567 54.4902 30.6039 49.4493 27.5615L46.4376 25.7438L47.7222 23.0169C51.6679 14.6415 43.5489 5.88404 35.7362 10.0883ZM43.7182 14.1705C49.0809 20.0253 42.029 28.6093 36.2315 23.2833C32.0409 19.4334 34.6404 12.2206 40.2494 12.1344C41.327 12.118 42.4325 12.7668 43.7182 14.1705ZM47.2311 30.3235C49.1936 31.4705 51.2872 33.136 51.8832 34.0245C53.3049 36.143 59.692 61.8077 58.9887 62.5753C57.9852 63.6711 57.3971 62.3564 53.6466 50.6345C49.9299 39.0173 49.3124 37.7677 47.7944 38.7917C47.1613 39.2192 47.4293 42.1596 49.3782 56.1562C50.6683 65.4237 51.7209 73.3472 51.7172 73.7638C51.7117 74.3468 48.8589 74.5213 39.3232 74.5213H26.9364L29.4459 56.9092C31.5169 42.3736 31.8231 39.2085 31.1992 38.7874C29.6734 37.758 29.015 39.0733 25.3504 50.4722C21.4156 62.7117 21.002 63.6568 20.0398 62.6064C19.2623 61.7575 25.3512 36.9718 26.9911 34.311C30.8054 28.1221 40.2725 26.2568 47.2311 30.3235ZM82.2532 56.0506C85.8059 58.0562 86.3417 62.6006 83.3899 65.6883C78.7523 70.5393 71.6792 64.284 75.0258 58.2916C76.7371 55.227 79.3564 54.4149 82.2532 56.0506ZM74.0491 70.0196C76.72 70.4958 79.8578 70.8855 81.0216 70.8855C83.2591 70.8855 84.8162 72.2426 86.9315 76.0361L87.9453 77.8538L86.5807 76.4904C83.1791 73.0921 82.3798 75.2615 84.1786 83.009C84.9411 86.2931 85.5652 89.1352 85.5652 89.3249C85.5652 89.5142 82.1645 89.6695 78.008 89.6695C70.7106 89.6695 70.4607 89.6275 70.7424 88.4513C74.1423 74.2573 74.2036 74.6991 68.3847 71.5048C61.982 67.9905 62.2603 67.9174 74.0491 70.0196ZM35.4034 82.8528C35.2233 85.4354 34.9179 90.0026 34.7246 93.0021C34.3479 98.8469 33.7742 100.462 32.4891 99.2975C31.902 98.7659 31.7302 96.2935 31.7302 88.3834V78.1568H33.7304H35.7306L35.4034 82.8528ZM47.2701 88.3834C47.2701 95.968 47.086 98.7768 46.5578 99.2555C45.0318 100.638 44.573 98.9477 43.9823 89.7654C43.1682 77.1146 43.0475 78.1568 45.3276 78.1568H47.2701V88.3834ZM74.2926 95.5774C74.1532 96.1605 74.0388 95.6833 74.0388 94.5169C74.0388 93.3504 74.1532 92.8733 74.2926 93.4567C74.4323 94.0397 74.4323 94.994 74.2926 95.5774ZM82.7817 93.1537C82.7568 94.4818 81.6968 95.3633 81.6887 94.0626C81.684 93.3126 81.9299 92.6991 82.2351 92.6991C82.5404 92.6991 82.7864 92.9037 82.7817 93.1537Z" fill="white"/>
</svg>
