<svg width="50" height="45" viewBox="0 0 50 45" fill="none" xmlns="http://www.w3.org/2000/svg">
<path d="M10.3401 20.625H2.06799V41.25H10.3401V20.625Z" fill="white"/>
<path d="M33.0883 6.09375C34.4325 4.66875 36.5212 3.75 38.6719 3.75C42.4977 3.75 45.4964 6.46875 45.4964 9.9375C45.4964 14.1938 39.4784 19.125 33.0883 24.375C26.6981 19.1063 20.6802 14.175 20.6802 9.9375C20.6802 6.46875 23.6788 3.75 27.5046 3.75C29.6554 3.75 31.7441 4.66875 33.0883 6.09375Z" fill="white"/>
<path d="M41.3603 31.875H26.8842L22.562 30.5063L23.2445 28.7437L26.8842 30H32.716C34.0602 30 35.1562 29.0062 35.1562 27.7875C35.1562 26.8687 34.5151 26.0437 33.5638 25.7062L18.5501 20.625H14.4761V37.5375L28.9522 41.25L45.517 35.625C45.4963 33.5625 43.6558 31.875 41.3603 31.875Z" fill="white"/>
</svg>
