<svg width="40" height="53" viewBox="0 0 40 53" fill="none" xmlns="http://www.w3.org/2000/svg">
<path d="M35.5556 5.59014C34.3283 5.59014 33.3333 4.59522 33.3333 3.36792V2.61724C33.3333 1.38994 32.3384 0.39502 31.1111 0.39502C29.8838 0.39502 28.8889 1.38994 28.8889 2.61724V2.99258C28.8889 4.42717 27.7259 5.59014 26.2913 5.59014H13.7087C12.2741 5.59014 11.1111 4.42717 11.1111 2.99258V2.61724C11.1111 1.38994 10.1162 0.39502 8.88889 0.39502C7.66159 0.39502 6.66667 1.38994 6.66667 2.61724V3.36792C6.66667 4.59522 5.67174 5.59014 4.44444 5.59014C2 5.59014 0 7.92795 0 10.7853V47.1511C0 50.0084 2 52.3462 4.44444 52.3462H35.5556C38 52.3462 40 50.0084 40 47.1511V10.7853C40 7.92795 38 5.59014 35.5556 5.59014ZM35.5556 35.1511C35.5556 41.7785 30.183 47.1511 23.5556 47.1511H16.4445C9.81704 47.1511 4.44444 41.7785 4.44444 35.1511V33.1755C4.44444 26.5481 9.81703 21.1755 16.4444 21.1755H23.5555C30.183 21.1755 35.5556 26.5481 35.5556 33.1755V35.1511ZM7.04201 15.9804C5.60741 15.9804 4.44444 14.8174 4.44444 13.3828C4.44444 11.9482 5.60741 10.7853 7.042 10.7853H32.958C34.3926 10.7853 35.5556 11.9482 35.5556 13.3828C35.5556 14.8174 34.3926 15.9804 32.958 15.9804H7.04201ZM8.88889 28.9682C8.88889 27.5336 10.0519 26.3706 11.4865 26.3706H28.5135C29.9481 26.3706 31.1111 27.5336 31.1111 28.9682C31.1111 30.4028 29.9481 31.5657 28.5135 31.5657H11.4865C10.0519 31.5657 8.88889 30.4028 8.88889 28.9682ZM8.88889 39.3584C8.88889 37.9238 10.0519 36.7609 11.4864 36.7609H21.8469C23.2815 36.7609 24.4444 37.9238 24.4444 39.3584C24.4444 40.793 23.2815 41.956 21.8469 41.956H11.4865C10.0519 41.956 8.88889 40.793 8.88889 39.3584Z" fill="white"/>
</svg>
