<svg width="112" height="112" viewBox="0 0 112 112" fill="none" xmlns="http://www.w3.org/2000/svg">
<path fill-rule="evenodd" clip-rule="evenodd" d="M91.1881 10.4909C88.1293 11.4693 86.5456 13.1012 75.3631 26.7967L64.4305 40.1864L60.9696 40.34C56.1437 40.554 51.9219 42.1087 47.9187 45.1464C46.0378 46.5737 44.6705 47.4632 44.8805 47.1233C49.1506 40.2099 9.71902 47.4854 5.15654 54.4528C0.467981 61.6121 10.8158 84.8164 22.153 92.5666C23.9044 93.7637 25.5065 95.4008 25.7136 96.2041C27.7097 103.954 72.705 103.921 72.7986 96.1697C72.8105 95.1984 73.6507 94.2326 75.4325 93.1423C85.1349 87.2053 93.6844 71.6533 94.024 59.3239C94.1688 54.0715 90.6555 50.4001 84.1513 49.0066C82.5167 48.6565 83.1304 48.037 93.3383 39.7327C106.877 28.719 108.553 26.2161 106.795 19.641C104.988 12.8782 97.4817 8.47762 91.1881 10.4909ZM97.6165 15.2678C101.707 17.3973 103.72 21.6974 102.326 25.3279C101.942 26.3288 96.0652 31.5819 87.7125 38.3913C70.5957 52.3459 71.8424 50.4931 72.7391 60.6399C72.7623 60.9041 73.5088 61.12 74.3975 61.12C76.2833 61.12 77.2621 59.1746 77.2621 55.426C77.2621 53.7397 77.6937 52.6287 78.7024 51.7202C80.9799 49.6689 81.664 49.4343 81.299 50.8307C81.0391 51.8255 81.7232 52.4492 84.7576 53.9817C90.081 56.6705 90.2798 57.0062 89.4307 61.8708C87.2606 74.3028 81.6299 83.4007 72.0267 89.9926C69.7221 91.5747 68.3166 93.0177 68.1863 93.9359C67.4761 98.9399 29.8959 98.5911 29.8959 93.5803C29.8959 92.508 28.8274 91.4302 25.7715 89.4198C16.4191 83.2675 8.82518 69.6992 8.78272 59.0658C8.76407 54.3981 20.4129 50.3187 37.2782 49.0864L43.7004 48.6172L41.592 52.1206C39.1913 56.1096 38.2258 59.0993 38.2206 62.5611C38.2164 65.4392 37.3583 65.5654 28.4083 64.0039C20.796 62.6757 15.8871 60.7554 15.1512 58.818C13.8923 55.5052 10.0802 57.3064 10.9564 60.8001C14.2252 73.832 87.5034 72.4987 87.5034 59.4073C87.5034 56.7175 85.0474 56.3657 83.4369 58.8248C81.0822 62.4208 69.4568 64.904 52.6189 65.4083C43.1022 65.6931 41.2366 65.6062 41.8976 64.9095C42.3376 64.4457 42.6975 63.1404 42.6975 62.0086C42.6975 53.4861 54.806 43.451 63.5129 44.7573L66.2825 45.1728L77.8854 30.8909C91.7574 13.8163 92.9758 12.8518 97.6165 15.2678ZM17.5211 72.4346C15.7218 74.2349 20.64 81.6088 26.6557 86.1301C30.9998 89.3953 32.2969 89.8433 33.6086 88.5309C34.9762 87.1625 34.4404 86.1848 30.8788 83.5523C26.7956 80.5343 24.7625 78.482 22.1373 74.7296C20.3949 72.239 18.6056 71.3495 17.5211 72.4346Z" fill="white"/>
</svg>
