<svg width="112" height="112" viewBox="0 0 112 112" fill="none" xmlns="http://www.w3.org/2000/svg">
<path fill-rule="evenodd" clip-rule="evenodd" d="M46.4333 12.0503C-1.32989 23.1787 -0.602337 90.4196 47.3855 100.095C83.2884 107.333 112.42 69.7887 96.5786 36.6952C87.7041 18.1555 66.0038 7.49077 46.4333 12.0503ZM55.3243 18.0878C55.2305 21.4332 54.3526 25.2391 54.2246 22.8551C54.0674 19.9276 53.4219 19.5833 48.9816 20.0565C44.1164 20.5748 44.46 20.118 42.8107 28.255L41.4873 34.7853L31.9169 37.1638C20.4624 40.0099 22.0309 38.4626 20.705 48.2264C19.3142 58.4698 19.2782 60.2811 20.5214 57.452L21.4015 55.4493L23.4494 56.7849C25.1844 57.9165 25.9716 59.3467 28.6087 66.1605L31.7203 74.2007L28.2577 78.0533C24.0492 82.7358 24.4984 82.7355 21.568 78.0619C5.23429 52.0137 23.0057 16.0392 52.4607 15.5251L55.3973 15.4738L55.3243 18.0878ZM69.4322 17.6053C73.5909 19.1076 78.5354 21.8919 81.8839 24.6178L83.9507 26.3002L77.9401 26.0388L71.9296 25.7769L72.2433 29.6985L72.5571 33.6197L69.5695 36.6952C66.7394 39.6087 66.5592 39.9979 66.1451 44.0767C65.7444 48.0233 65.4583 48.69 62.7164 52.0644C58.1466 57.6887 58.6455 58.6924 66.3505 59.373C70.768 59.7631 70.8258 59.7489 72.166 57.9456L73.5192 56.1241L75.3247 57.6356C76.7708 58.8463 77.8177 59.1471 80.586 59.1471C85.7174 59.1471 84.4248 59.6364 72.3281 62.272C66.2911 63.5875 61.1681 64.8759 60.9435 65.1349C59.8817 66.3592 55.2998 78.18 55.4955 79.1905C55.6511 79.9953 58.1069 81.3872 63.7487 83.8677L71.7804 87.3991L71.9634 90.3847C72.1747 93.8321 71.6944 94.2051 65.0426 95.7661C53.4448 98.4877 38.835 95.0604 30.1179 87.5732L27.4034 85.242L31.8178 80.5047C37.112 74.8238 37.0446 76.1493 32.6175 64.7213C29.3835 56.3729 28.7619 55.2274 26.7184 53.8454L24.4338 52.3012L24.8504 48.4965C25.4655 42.8805 25.2521 43.0428 35.0996 40.7165C45.7176 38.2082 45.1596 38.6493 46.4106 31.7744C47.7194 24.5826 47.8866 24.0853 48.995 24.0853C49.6582 24.0853 49.8962 24.6639 49.8182 26.0845C49.7577 27.184 49.7362 28.4296 49.7707 28.8525C49.8586 29.9306 52.612 29.8097 54.9646 28.6247C58.4421 26.8724 59.1063 25.9584 59.1134 22.9135C59.1171 21.359 59.297 19.0238 59.5126 17.724L59.9053 15.361L62.727 15.782C64.279 16.0135 67.2961 16.8342 69.4322 17.6053ZM86.8445 30.6431C88.9281 31.1979 92.8113 37.4843 94.7327 43.4134C100.075 59.8957 94.3739 78.0604 80.6267 88.3607L76.7261 91.2833L76.417 87.9858L76.1079 84.6887L68.6891 81.411C59.5101 77.3557 60.0264 77.9794 61.9379 73.2592C64.0538 68.0345 63.0544 68.5785 75.5555 65.848C88.029 63.1236 87.2915 63.5041 87.706 59.5801C88.1235 55.6286 87.2686 54.8413 82.5602 54.8413C79.3306 54.8413 78.568 54.5885 76.0688 52.6906C72.8519 50.2475 71.5723 50.4426 69.9162 53.6294C69.2514 54.9084 68.508 55.4564 67.4368 55.4564C65.5086 55.4564 65.4934 55.5322 68.065 52.3135C69.9774 49.9196 70.2234 49.1997 70.2287 45.9777C70.2346 42.4051 70.2946 42.2803 73.709 38.7185C77.0156 35.2693 77.1644 34.9775 76.7926 32.6655L76.4024 30.2366L80.8917 30.2449C83.3611 30.2496 86.0396 30.4289 86.8445 30.6431Z" fill="black"/>
</svg>
