<svg width="112" height="112" viewBox="0 0 112 112" fill="none" xmlns="http://www.w3.org/2000/svg">
<g clip-path="url(#clip0)">
<path d="M12.4985 48.1072V86.1714C12.4985 88.2174 14.18 89.8806 16.2485 89.8806C18.317 89.8806 19.9985 88.2174 19.9985 86.1714V48.1072C22.58 47.4439 24.4985 45.1398 24.4985 42.3831V24.5757C24.4985 23.7553 23.828 23.092 22.9985 23.092C22.169 23.092 21.4985 23.7553 21.4985 24.5757V36.4453H19.9985V24.5757C19.9985 23.7553 19.328 23.092 18.4985 23.092C17.669 23.092 16.9985 23.7553 16.9985 24.5757V36.4453H15.4985V24.5757C15.4985 23.7553 14.828 23.092 13.9985 23.092C13.169 23.092 12.4985 23.7553 12.4985 24.5757V36.4453H10.9985V24.5757C10.9985 23.7553 10.328 23.092 9.49847 23.092C8.66897 23.092 7.99847 23.7553 7.99847 24.5757V42.3831C7.99847 45.1398 9.91697 47.4439 12.4985 48.1072V48.1072ZM16.9985 86.1728C16.9985 86.5809 16.661 86.9147 16.2485 86.9147C15.836 86.9147 15.4985 86.5809 15.4985 86.1728V48.3178H16.9985V86.1728ZM10.9985 39.4127H21.4985V42.3831C21.4985 44.0196 20.153 45.3504 18.4985 45.3504H13.9985C12.344 45.3504 10.9985 44.0196 10.9985 42.3831V39.4127Z" fill="white"/>
<path d="M93.497 23.0774C92.6675 23.0774 91.997 23.7406 91.997 24.5611C91.997 24.57 92.0015 24.5759 92.0015 24.5833V24.5848V86.173C92.0015 88.2191 93.683 89.8823 95.7515 89.8823C97.82 89.8823 99.5015 88.2191 99.5015 86.173V60.1995H102.502C103.331 60.1995 104.002 59.5363 104.002 58.7158V33.4662C104.002 27.7377 99.2885 23.0774 93.497 23.0774V23.0774ZM96.5015 86.173C96.5015 86.5811 96.164 86.9149 95.7515 86.9149C95.339 86.9149 95.0015 86.5811 95.0015 86.173V60.1995H96.5015V86.173ZM101.002 57.2321H95.0015V26.1961C98.42 26.8875 101.002 29.8846 101.002 33.4662V57.2321Z" fill="white"/>
<path d="M56.7485 23.0742C38.1395 23.0742 22.9985 38.0506 22.9985 56.4574C22.9985 74.8641 38.1395 89.8405 56.7485 89.8405C75.3575 89.8405 90.4985 74.8641 90.4985 56.4574C90.4985 38.0506 75.3575 23.0742 56.7485 23.0742ZM56.7485 86.8731C39.7925 86.8731 25.9985 73.2291 25.9985 56.4574C25.9985 39.6857 39.7925 26.0416 56.7485 26.0416C73.7045 26.0416 87.4985 39.6857 87.4985 56.4574C87.4985 73.2291 73.7045 86.8731 56.7485 86.8731Z" fill="white"/>
<path d="M56.7485 33.4602C43.928 33.4602 33.4985 43.7763 33.4985 56.4575C33.4985 69.1386 43.928 79.4548 56.7485 79.4548C69.569 79.4548 79.9985 69.1386 79.9985 56.4575C79.9985 43.7763 69.569 33.4602 56.7485 33.4602V33.4602ZM56.7485 76.4874C45.5825 76.4874 36.4985 67.5021 36.4985 56.4575C36.4985 45.4129 45.5825 36.4276 56.7485 36.4276C67.9145 36.4276 76.9985 45.4129 76.9985 56.4575C76.9985 67.5021 67.9145 76.4874 56.7485 76.4874Z" fill="white"/>
</g>
<defs>
<clipPath id="clip0">
<rect width="96" height="94.9565" fill="white" transform="translate(8 9)"/>
</clipPath>
</defs>
</svg>
